# xmcd
#
# Track frame offsets: 
#        150
#        19386
#        35483
#        53390
#        56982
#        72179
#        75707
#        81244
#        95590
#        115935
#        136857
#        154902
#        174013
#
# Disc length: 2565 seconds
#
# Revision: 0
# Processed by: cddbd v1.5.2PL0 Copyright (c) Steve Scherf et al.
# Submitted via: ExactAudioCopyFreeDBPlugin 1.0
#
DISCID=a40a030d
DTITLE=Sheriffs of Schroedingham - High Noon
DYEAR=2014
DGENRE=Country
TTITLE0=Interstate
TTITLE1=Madcat on the Rocks
TTITLE2=About a Girl
TTITLE3=High Noon
TTITLE4=Move On
TTITLE5=Tumbleweed
TTITLE6=Sunrise
TTITLE7=Sauce on the Side
TTITLE8=Long Distance
TTITLE9=The Wolf is on the Hill
TTITLE10=Don't Lose Heart
TTITLE11=Ten Car Pileup
TTITLE12=Farewell, Ferris Wheel
EXTD=
EXTT0=
EXTT1=
EXTT2=
EXTT3=
EXTT4=
EXTT5=
EXTT6=
EXTT7=
EXTT8=
EXTT9=
EXTT10=
EXTT11=
EXTT12=
PLAYORDER=
